# xmcd
# Track frame offsets:
# 150
# 24996
# 40141
# 57844
# 74033
# 92063
# 107149
# 119835
# 135636
# 151905
# 173096
# 193971
# 210706
# 230355
# 243025
# 257803
# 275344
# 299726
# 320680
# 341581
#
# Disc length: 4716 seconds
# Revision: 0
# Processed by: cddbd v1.4PL0 Copyright (c) Steve Scherf et al.
# Submitted via: VisiTrax 2.9.5.181 - For more info visit www.synapsa.com
#
DISCID=34126a14
DTITLE=Various Artist - Line Dance Fever 14
DYEAR=2002
DGENRE=Country
TTITLE0=Chris Anderson and DJ Robbie - Last Night (Club Mix)
TTITLE1=Two In One - Mamma Afrika
TTITLE2=Roy Orbison - California Blue
TTITLE3=Leann Rimes - Can't Fight The Moonlight (Latino Mix)
TTITLE4=Kaci - Paradise (Metro Radio Edit)
TTITLE5=Liz Abella - Baila Baila
TTITLE6=Hal Ketchum - Don't Let Go
TTITLE7=Supersister - Coffee
TTITLE8=The Alice Band - Nothing On But The Radio
TTITLE9=Big House - I Walk Alone
TTITLE10=Jo Dee Messina - Burn
TTITLE11=Newton - We're All Alone
TTITLE12=Nathalie Powers - Music To My Heart
TTITLE13=Five - Inspector Gadget
TTITLE14=Jenai - Southside Stomp
TTITLE15=Steve Holy - Just A Kiss
TTITLE16=Makr Griffin - I Wanna Get Back With You (Almighty Mix)
TTITLE17=Ronnie Mcdowell - The Twist
TTITLE18=Moloko - Sing It Back
TTITLE19=Junior Brown - Ain't Gonna Work Today
EXTD=
EXTT0=
EXTT1=
EXTT2=
EXTT3=
EXTT4=
EXTT5=
EXTT6=
EXTT7=
EXTT8=
EXTT9=
EXTT10=
EXTT11=
EXTT12=
EXTT13=
EXTT14=
EXTT15=
EXTT16=
EXTT17=
EXTT18=
EXTT19=
PLAYORDER=
